<svg width="60" height="60" viewBox="0 0 60 60" fill="none" xmlns="http://www.w3.org/2000/svg">
<path d="M30 60C46.5685 60 60 46.5685 60 30C60 13.4315 46.5685 0 30 0C13.4315 0 0 13.4315 0 30C0 46.5685 13.4315 60 30 60Z" fill="url(#paint0_linear_57972_999)"/>
<path fill-rule="evenodd" clip-rule="evenodd" d="M13.5796 29.6834L31.075 22.1474C39.4063 18.6821 41.1375 18.0801 42.2658 18.0603C42.514 18.0559 43.0689 18.1174 43.4283 18.4091C43.7319 18.6553 43.8153 18.9881 43.8553 19.2215C43.8954 19.4549 43.945 19.9869 43.9055 20.4025C43.454 25.1461 41.5005 36.6579 40.5066 41.9709C40.086 44.2191 39.2586 44.9729 38.4564 45.0467C36.7143 45.207 35.3913 43.8953 33.7039 42.7892L27.0089 38.292C24.0469 36.3402 25.967 35.2674 27.6551 33.5142C28.0968 33.0552 35.7728 26.0734 35.9213 25.44C35.9393 25.3608 35.9571 25.0656 35.7817 24.9096C35.6063 24.7536 35.3473 24.8076 35.1605 24.8495C34.8958 24.9096 30.6777 27.6975 22.5064 33.2135C21.3091 34.0356 20.2246 34.4363 19.253 34.4153C18.1819 34.3921 16.1214 33.8096 14.5897 33.3117C12.7109 32.701 11.2177 32.3781 11.3477 31.3409C11.4154 30.8007 12.1594 30.2483 13.5795 29.6835L13.5796 29.6834Z" fill="white"/>
<defs>
<linearGradient id="paint0_linear_57972_999" x1="30" y1="0" x2="30" y2="59.555" gradientUnits="userSpaceOnUse">
<stop stop-color="#2AABEE"/>
<stop offset="1" stop-color="#229ED9"/>
</linearGradient>
</defs>
</svg>
